<?xml version="1.0" standalone="no"?>
<!DOCTYPE svg PUBLIC "-//W3C//DTD SVG 20010904//EN"
 "http://www.w3.org/TR/2001/REC-SVG-20010904/DTD/svg10.dtd">
<svg version="1.0" xmlns="http://www.w3.org/2000/svg"
 width="2566.000000pt" height="2566.000000pt" viewBox="0 0 2566.000000 2566.000000"
 preserveAspectRatio="xMidYMid meet">
<metadata>
Created by potrace 1.11, written by Peter Selinger 2001-2013
</metadata>
<g transform="translate(0.000000,2566.000000) scale(0.100000,-0.100000)"
fill="#000000" stroke="none">
<path d="M1065 23874 c-179 -21 -295 -54 -425 -119 -312 -158 -525 -428 -611
-775 l-24 -95 0 -9075 c0 -8726 1 -9080 18 -9210 51 -376 145 -683 308 -1010
246 -492 614 -903 1084 -1212 135 -89 451 -249 595 -302 335 -122 641 -181
995 -193 1050 -34 2037 464 2647 1337 260 373 442 835 512 1305 36 239 37 364
34 3640 -4 3541 1 3250 -63 3441 -121 361 -429 644 -812 745 -96 26 -343 37
-449 20 -297 -46 -566 -206 -744 -442 -108 -144 -169 -278 -213 -464 l-21 -90
-6 -3275 c-5 -3108 -6 -3278 -23 -3335 -10 -33 -36 -96 -58 -140 -100 -202
-272 -344 -494 -411 -113 -33 -291 -38 -394 -11 -303 81 -508 282 -593 582
l-23 80 -5 9030 -5 9030 -22 78 c-64 223 -149 372 -303 527 -112 113 -206 180
-336 242 -165 77 -407 120 -569 102z"/>
<path d="M6776 23870 c-775 -57 -1475 -385 -2016 -946 -145 -150 -227 -252
-345 -429 -278 -416 -437 -850 -502 -1365 -17 -137 -18 -302 -18 -2985 0
-2356 2 -2853 14 -2915 89 -490 460 -862 945 -946 133 -24 348 -15 480 20 337
88 630 338 768 657 34 79 48 123 80 257 9 35 13 786 17 2877 7 3187 -2 2864
86 3040 98 196 265 337 480 405 107 34 292 39 408 11 286 -68 508 -286 590
-576 l22 -80 5 -8165 c5 -6453 8 -8182 18 -8245 53 -337 125 -595 239 -855
385 -874 1156 -1527 2078 -1759 252 -63 484 -91 760 -91 200 0 339 11 520 41
1203 200 2186 1109 2484 2295 27 108 38 165 73 373 8 48 13 2311 17 8236 l6
8170 22 80 c82 291 303 507 589 576 124 30 303 23 419 -15 257 -84 454 -288
532 -551 17 -57 18 -472 23 -9135 5 -8344 7 -9081 22 -9146 53 -231 149 -411
304 -573 172 -181 402 -300 657 -341 120 -20 338 -8 462 24 125 33 297 116
402 195 233 175 391 436 444 731 12 63 14 1547 14 9160 0 8716 -1 9091 -18
9230 -74 594 -294 1122 -657 1580 -98 124 -360 388 -480 484 -111 88 -340 241
-460 306 -686 373 -1489 473 -2250 280 -861 -218 -1600 -813 -2000 -1609 -159
-319 -247 -602 -307 -991 -17 -109 -18 -549 -23 -8280 -5 -7821 -6 -8168 -23
-8225 -28 -94 -101 -234 -157 -302 -100 -123 -262 -227 -420 -269 -100 -28
-301 -25 -404 4 -157 45 -306 142 -406 265 -56 68 -129 208 -157 302 -17 57
-18 404 -23 8225 -5 7721 -7 8171 -23 8280 -58 379 -147 667 -303 979 -93 185
-176 323 -285 468 -472 629 -1153 1054 -1918 1197 -230 43 -558 62 -785 46z"/>
<path d="M22348 23870 c-730 -54 -1408 -355 -1930 -858 -497 -479 -810 -1082
-921 -1777 l-22 -140 0 -8265 c0 -7919 1 -8270 18 -8380 67 -426 190 -786 381
-1114 520 -890 1406 -1457 2416 -1547 190 -17 546 -7 725 21 1425 217 2505
1361 2634 2790 7 77 11 1205 11 3426 0 3642 4 3383 -60 3576 -132 393 -469
684 -881 763 -105 20 -313 20 -418 0 -232 -44 -439 -154 -605 -319 -153 -153
-247 -321 -309 -550 l-22 -81 -5 -3335 -5 -3335 -28 -90 c-71 -225 -217 -397
-420 -494 -125 -60 -191 -75 -342 -75 -106 -1 -144 3 -208 22 -280 80 -488
291 -564 572 -17 62 -18 435 -18 8155 l0 8090 32 93 c44 132 101 222 202 322
162 160 330 230 556 230 326 0 607 -189 734 -494 65 -156 61 30 61 -3006 0
-2399 2 -2768 15 -2843 44 -253 153 -456 342 -638 134 -129 256 -203 421 -259
357 -120 757 -59 1053 161 83 61 222 206 274 284 57 87 112 199 140 288 58
183 55 2 55 3069 0 2461 -2 2837 -15 2964 -35 334 -115 635 -246 933 -370 837
-1089 1466 -1973 1726 -320 94 -745 139 -1078 115z"/>
</g>
</svg>
